<svg width="89" height="89" viewBox="0 0 89 89" fill="none" xmlns="http://www.w3.org/2000/svg">
<g clip-path="url(#clip0_290_5)">
<circle cx="44.5" cy="44.5" r="44.5" fill="white" fill-opacity="0.5"/>
<path d="M45.3536 3.64635C45.1583 3.45108 44.8417 3.45108 44.6464 3.64635L41.4645 6.82833C41.2692 7.02359 41.2692 7.34017 41.4645 7.53543C41.6597 7.7307 41.9763 7.7307 42.1716 7.53543L45 4.70701L47.8284 7.53543C48.0237 7.7307 48.3403 7.7307 48.5355 7.53543C48.7308 7.34017 48.7308 7.02359 48.5355 6.82833L45.3536 3.64635ZM45.5 4V3.9999H44.5V4H45.5Z" fill="#B9B9B9"/>
<path d="M44.6464 85.8537C44.8417 86.0489 45.1583 86.0489 45.3536 85.8537L48.5355 82.6717C48.7308 82.4764 48.7308 82.1598 48.5355 81.9646C48.3403 81.7693 48.0237 81.7693 47.8284 81.9646L45 84.793L42.1716 81.9646C41.9763 81.7693 41.6597 81.7693 41.4645 81.9646C41.2692 82.1598 41.2692 82.4764 41.4645 82.6717L44.6464 85.8537ZM44.5 85.5V85.5001H45.5V85.5H44.5Z" fill="#B9B9B9"/>
</g>
<defs>
<clipPath id="clip0_290_5">
<rect width="89" height="89" fill="white"/>
</clipPath>
</defs>
</svg>
