<svg width="138" height="138" viewBox="0 0 138 138" fill="none" xmlns="http://www.w3.org/2000/svg">
<path fill-rule="evenodd" clip-rule="evenodd" d="M103.992 101.874C112.575 90.6884 105.523 68.0462 87.3985 49.9217C69.18 31.7032 46.3967 24.6719 35.2729 33.4634C43.9743 25.1764 55.751 20.0893 68.7158 20.0893C95.5016 20.0893 117.216 41.8035 117.216 68.5893C117.216 81.4758 112.19 93.1884 103.992 101.874ZM100.735 105.018C92.1929 112.532 80.9865 117.089 68.7158 117.089C41.93 117.089 20.2158 95.3752 20.2158 68.5893C20.2158 56.2405 24.831 44.9695 32.4306 36.4072C24.1444 47.6788 31.2265 70.1173 49.2147 88.1055C67.1088 106 89.4065 113.101 100.735 105.018Z" fill="#72C3FF"/>
<circle cx="102.09" cy="83.5039" r="2" fill="#72C3FF"/>
<circle cx="94.0898" cy="95.5039" r="2" fill="#72C3FF"/>
<circle cx="75.0898" cy="86.5039" r="2" fill="#72C3FF"/>
<circle cx="67.0898" cy="62.5039" r="2" fill="#72C3FF"/>
<circle cx="42.0898" cy="41.5039" r="2" fill="#72C3FF"/>
<path d="M85.0898 73.0039C80.0898 73.5039 77.0898 76.5039 76.5898 81.5039C76.0898 76.5039 73.0898 73.5039 68.0898 73.0039C73.0898 72.5039 76.0898 69.5039 76.5898 64.5039C77.0898 69.5039 80.0898 72.5039 85.0898 73.0039Z" fill="#72C3FF"/>
<path d="M62.0898 48.0039C59.4428 48.2686 57.8545 49.8568 57.5898 52.5039C57.3251 49.8568 55.7369 48.2686 53.0898 48.0039C55.7369 47.7392 57.3251 46.151 57.5898 43.5039C57.8545 46.151 59.4428 47.7392 62.0898 48.0039Z" fill="#72C3FF"/>
</svg>
